# xmcd CD database file
#
# Track frame offsets:
#	150
#	12725
#	24622
#	36157
#	48255
#	60640
#	73007
#	85527
#	97080
#	108930
#	121240
#	132707
#	145407
#	156995
#	169560
#	182435
#	194425
#	206657
#	218557
#	230817
#	243712
#	255782
#	267032
#	278960
#	289617
#	302132
#	314225
#
# Disc length: 4344 seconds
#
# Revision: 1
# Processed by: cddbd v1.5PL3 Copyright (c) Steve Scherf et al.
# Submitted via: CDex 1.51
#
DISCID=9510f61b
DTITLE=Lightning Hopkins - The Complete GOLD STAR Sessions (Disk1)
DYEAR=1991
DGENRE=Blues
TTITLE0=Short Haired Woman
TTITLE1=Short Haired Woman (alternate take)
TTITLE2=Big Mama Jump
TTITLE3=Loretta Blues
TTITLE4=Ida May
TTITLE5=Shining Moon
TTITLE6=Shining Moon
TTITLE7=Mercy
TTITLE8=What Can It Be
TTITLE9=Lonesome Home
TTITLE10=Appetite Blues
TTITLE11=Walking Blues
TTITLE12=Lightning Blues
TTITLE13=No Mail Blues
TTITLE14=Ain't It A Shame
TTITLE15=Tim Moore's Farm
TTITLE16=You Don't Know
TTITLE17=Treat Me Kind
TTITLE18=Somebody's Got To Go
TTITLE19=Baby Please Don' t Go
TTITLE20=Death Bells
TTITLE21=Mad With You
TTITLE22=Airplane Blues
TTITLE23=Unsuccessful Blues
TTITLE24=Rollin' Woman Blues
TTITLE25=Jail House Blues
TTITLE26="T" Model Blues
EXTD=YEAR: 1991
EXTT0=
EXTT1=
EXTT2=
EXTT3=
EXTT4=
EXTT5=
EXTT6=
EXTT7=
EXTT8=
EXTT9=
EXTT10=
EXTT11=
EXTT12=
EXTT13=
EXTT14=
EXTT15=
EXTT16=
EXTT17=
EXTT18=
EXTT19=
EXTT20=
EXTT21=
EXTT22=
EXTT23=
EXTT24=
EXTT25=
EXTT26=
PLAYORDER=
